<svg width="165" height="48" viewBox="0 0 165 48" fill="none" xmlns="http://www.w3.org/2000/svg">
<path d="M112.564 41.316C112.629 40.4559 112.39 39.7002 111.916 38.9853C111.433 38.2573 111.191 37.4708 111.555 36.6035L111.613 36.4061C111.827 35.6247 111.729 34.9027 111.148 34.3035C110.712 33.8524 110.593 33.335 110.72 32.7398C110.889 31.9575 110.833 31.2323 110.359 30.531C109.949 29.9223 109.878 29.2505 110.204 28.5305C110.48 27.9261 110.66 27.2734 110.834 26.6302C110.97 26.129 110.971 25.5984 110.781 25.1106C110.627 24.7128 110.667 24.3516 110.762 23.96C110.864 23.5469 110.921 23.1204 110.976 22.698C111.02 22.3729 110.911 22.0855 110.667 21.8624C110.346 21.57 110.235 21.2059 110.288 20.7917C110.352 20.3161 110.445 19.8457 110.195 19.3876C110.151 19.3078 110.177 19.1851 110.184 19.0828C110.245 18.2564 110.036 17.4873 109.71 16.7386C109.522 16.3071 109.443 15.853 109.493 15.3836C109.587 14.4725 109.53 13.5633 109.37 12.6705C109.199 11.7102 108.928 10.7693 108.725 9.81406C108.654 9.4837 108.607 9.13614 108.628 8.80169C108.67 8.11952 108.752 7.43849 108.844 6.75943C108.955 5.94116 109.157 5.14761 109.511 4.39288C109.852 3.66272 110.167 2.92027 110.483 2.17881C110.596 1.91086 110.693 1.63373 110.761 1.35136C110.843 1.01183 110.839 0.669188 110.632 0.36045C110.358 -0.0496722 109.996 -0.126324 109.636 0.2173C109.343 0.500487 109.065 0.823803 108.869 1.17758C108.482 1.87302 108.038 2.51719 107.502 3.10535C107.129 3.51547 106.97 4.00438 106.947 4.56273C106.905 5.64781 106.656 6.66444 105.865 7.4855C105.64 7.71972 105.443 7.98358 105.261 8.2535C105.078 8.52145 104.885 8.79858 104.781 9.10028C104.534 9.81095 104.264 10.5269 104.138 11.2652C103.97 12.2479 103.711 13.1992 103.449 14.1585C103.231 14.9552 102.859 15.6097 102.297 16.1845C101.942 16.5486 101.693 16.9802 101.537 17.4567C101.351 18.0273 101.189 18.6042 101.034 19.1841C100.964 19.448 100.915 19.721 100.89 19.9919C100.77 21.2886 100.675 22.5876 100.543 23.8812C100.511 24.188 100.539 24.5287 100.325 24.8068L100.234 24.7272C99.8923 24.2597 99.8511 23.7187 99.7986 23.1664C99.6772 21.8717 99.5447 20.5801 99.597 19.2762C99.6125 18.8824 99.597 18.4877 99.6092 18.094C99.6196 17.7718 99.4839 17.5325 99.239 17.3402C99.1456 17.2677 99.049 17.2002 98.9408 17.1203C98.9604 16.8779 98.9798 16.6395 98.9986 16.4024C99.0427 15.8236 98.9635 15.2857 98.5871 14.7999C98.4525 14.6281 98.3939 14.356 98.396 14.131C98.401 13.5502 98.4555 12.9683 98.5021 12.3883C98.538 11.9076 98.3641 11.5169 98.0268 11.1868C97.9405 11.1039 97.8284 11.0364 97.7666 10.9393C97.6701 10.7879 97.5302 10.613 97.5396 10.4556C97.5692 9.89415 97.6186 9.32859 97.7286 8.77843C97.8149 8.34473 98.0133 7.9346 98.1378 7.50712C98.3619 6.73388 98.5963 5.96392 98.7732 5.17955C98.8637 4.7786 98.6631 4.49836 98.3237 4.3462C97.9988 4.19781 97.7273 4.23352 97.4673 4.58648C97.0198 5.192 96.6014 5.8229 96.221 6.47019C96.0533 6.75747 95.9845 7.10928 95.9094 7.44079C95.7849 7.99717 95.6514 8.55044 95.2339 8.9717C94.7824 9.42785 94.5357 9.98309 94.3753 10.5896C94.3496 10.6898 94.2979 10.7838 94.2384 10.9291C93.9567 10.2071 93.8416 10.1366 93.2308 10.2817C93.209 10.1836 93.201 10.0802 93.1629 9.98915C92.9933 9.58115 92.6706 9.51777 92.3661 9.84387C92.2386 9.97899 92.109 10.1343 92.0463 10.3051C91.8108 10.9484 91.5733 11.5928 91.3892 12.2502C91.2062 12.9098 91.1137 13.5941 90.9358 14.2546C90.5431 15.7089 90.2541 17.1938 89.6237 18.5786C89.5466 18.7473 89.5176 18.9396 89.4829 19.1237C89.2999 20.1148 89.3278 21.1006 89.5384 22.0855C89.7904 23.2573 89.7658 24.4355 89.5817 25.6137C89.4645 26.3755 89.0152 26.9635 88.5309 27.5271C87.7638 28.4178 87.4286 29.4424 87.5242 30.6155C87.5703 31.1861 87.6919 31.7284 87.9231 32.253C88.3244 33.1589 88.4723 34.0864 88.1093 35.0469C88.0486 35.2066 88.0044 35.3764 87.9838 35.545C87.9293 35.9705 87.9129 36.3878 88.1072 36.804C88.2174 37.0423 88.2666 37.3286 88.2686 37.5944C88.2758 38.6407 88.2511 39.686 88.249 40.7321C88.248 40.9172 88.2829 41.1075 88.3335 41.2865C88.4044 41.5463 88.5564 41.759 88.8354 41.8232C89.1374 41.8928 89.3227 41.6965 89.4788 41.485C89.7584 41.1055 89.9559 40.6861 90.0033 40.2145C90.0897 39.3668 90.3695 38.5835 90.7025 37.8072C90.8527 37.4536 90.9144 37.0474 90.94 36.6608C90.9894 35.902 90.8217 35.1617 90.6633 34.4232C90.6243 34.2422 90.5956 34.0447 90.6272 33.8658C90.7847 32.9853 91.1231 32.1701 91.7966 31.569C92.3508 31.071 92.5811 30.5084 92.4856 29.7906C92.4639 29.6198 92.4772 29.4439 92.4412 29.2772C92.3272 28.7607 92.395 28.2627 92.5111 27.7533C92.6696 27.0528 92.8484 26.3482 92.907 25.6354C93.0047 24.4518 93.2082 23.2944 93.488 22.1447C93.6833 21.3469 93.6864 20.5554 93.4006 19.7669C93.1229 18.9999 93.1476 18.2227 93.416 17.4465C93.5498 17.0588 93.6237 16.6518 93.7522 16.2622C93.8941 15.8306 93.9929 15.3725 94.396 14.9337C94.4288 15.1823 94.4741 15.3428 94.467 15.4993C94.4392 16.0127 94.4031 16.5251 94.3517 17.0344C94.287 17.6961 94.429 18.2637 95.0192 18.6513C95.2813 18.822 95.416 19.0687 95.4666 19.3713C95.5188 19.6752 95.6721 19.9615 95.9343 20.0812C96.5553 20.3665 96.6592 20.8972 96.7168 21.4731L96.7323 21.6264C96.8547 22.651 97.0356 23.6503 97.5476 24.5788C97.7545 24.9532 97.7823 25.4287 97.8735 25.8612C97.9353 26.1446 97.9096 26.4566 98.0186 26.7173C98.2335 27.2357 98.1976 27.7503 98.1431 28.284C98.031 29.4203 98.3394 30.0768 99.3512 30.2763C99.6011 30.3252 99.741 30.4767 99.7647 30.7334C99.7904 30.9881 99.8241 31.2426 99.8572 31.4973C99.9435 32.1621 100.048 32.8248 100.465 33.3831C100.709 33.7094 101.02 33.8978 101.447 33.7995C101.799 33.7176 102.09 33.3607 102.129 32.9262C102.166 32.5334 102.198 32.1366 102.175 31.7449C102.113 30.6772 102.428 29.7191 102.939 28.7986C103.085 28.5357 103.2 28.233 103.241 27.9362C103.315 27.3953 103.341 26.8453 103.357 26.2979C103.387 25.3101 103.566 24.3867 104.365 23.6963L104.469 23.5816C105.187 22.604 105.593 21.5476 105.341 20.3121C105.149 19.3632 105.314 18.4386 105.568 17.5243C105.618 17.3453 105.692 17.1725 105.755 16.9966C105.843 17.2074 105.843 17.3956 105.843 17.5836C105.844 18.1646 106.023 18.6585 106.525 19.0053C106.651 19.0921 106.757 19.2108 106.859 19.3273C107.108 19.6147 107.24 19.9389 107.131 20.3234C107.03 20.6864 106.929 21.0485 106.817 21.4095C106.602 22.1122 106.286 22.8014 106.182 23.5192C106.035 24.5378 106.085 25.5738 106.484 26.5586C106.566 26.7622 106.648 26.9799 106.661 27.1958C106.688 27.6919 106.702 28.1919 106.671 28.6869C106.561 30.3559 107.018 31.8367 108.103 33.1193C108.385 33.4506 108.409 33.7993 108.304 34.2198C108.162 34.7965 108.066 35.3907 108.021 35.9829C107.97 36.6191 108.235 37.1181 108.872 37.3615L108.96 37.4537C108.96 37.7769 108.964 38.1194 108.958 38.4609C108.953 38.9149 109.104 39.3066 109.45 39.6042C109.721 39.8396 110 40.0778 110.307 40.2619C110.621 40.451 110.716 40.6934 110.67 41.0371C110.627 41.3592 110.611 41.6843 110.589 42.0096C110.572 42.2825 110.641 42.5229 110.906 42.661C111.152 42.7888 111.332 42.6405 111.516 42.5085L111.615 42.5025L111.681 42.5742C111.982 42.8759 112.177 42.9268 112.443 42.7755C112.708 42.6241 112.764 42.4034 112.667 42.0188C112.609 41.7897 112.546 41.5463 112.564 41.316Z" fill="#11B0C8"/>
<path d="M30.2502 43.2939C30.1495 42.6589 29.8884 42.0862 29.4318 41.6096C28.8828 41.0319 28.5475 40.3641 28.4961 39.5519C28.4365 38.6191 27.8988 38.0044 27.0474 37.6772C26.7677 37.5689 26.5692 37.4227 26.4357 37.169C26.2763 36.8661 26.0943 36.5718 25.9617 36.2578C25.7931 35.86 25.499 35.5922 25.1031 35.5051C24.6413 35.4017 24.4378 35.1226 24.336 34.7125C24.298 34.5621 24.2466 34.4149 24.2239 34.2624C24.0688 33.2797 23.5288 32.5597 22.6815 32.0626C22.4111 31.9031 22.2764 31.6811 22.149 31.406C21.8898 30.8486 21.6533 30.2544 21.2707 29.7881C20.7257 29.1242 20.0399 28.6129 19.0713 28.9934L18.949 28.9596C18.8319 28.7153 18.7258 28.4432 18.5778 28.1956C18.2158 27.5953 17.9793 27.5422 17.3727 27.89L17.2895 27.895C17.237 27.7866 17.1805 27.6669 17.1209 27.5473C16.9132 27.1342 16.727 26.7076 16.4907 26.3109C16.2787 25.9548 16.0228 25.6318 15.522 25.6552C15.3946 25.6613 15.2618 25.5427 15.0367 25.4376C15.2887 25.2635 15.4191 25.148 15.5693 25.0745C16.0371 24.8422 16.3909 24.5046 16.5677 24.0138C16.6479 23.7928 16.7971 23.6702 16.9975 23.6087C17.2432 23.534 17.4962 23.4677 17.7513 23.4451C18.4381 23.3837 18.8936 22.9767 19.2278 22.4408C19.5723 21.8885 19.8262 21.2831 19.9332 20.6306C19.9877 20.293 20.0474 19.9863 20.397 19.7809C20.5625 19.6837 20.6654 19.4269 20.726 19.2225C20.8001 18.9628 20.832 18.6814 20.8289 18.4115C20.8238 17.942 20.942 17.5494 21.2813 17.1996C21.9024 16.5646 22.0781 15.7791 21.9332 14.9169C21.816 14.2205 21.742 13.5383 22.0022 12.8419C22.3117 12.0175 22.1142 11.2843 21.4058 10.729C21.1889 10.5592 21.1085 10.3721 21.1456 10.1114C21.1681 9.95891 21.1836 9.80445 21.1907 9.65017C21.2154 9.12146 21.2462 8.59276 21.2493 8.06307C21.2493 7.9178 21.1978 7.74598 21.1105 7.63035C20.4946 6.81731 19.9999 6.56885 19.1311 6.87054C18.9521 6.93295 18.7721 7.00157 18.5872 7.03007C18.2879 7.07904 18.1821 6.98306 18.1501 6.68334C18.1276 6.46239 18.1244 6.23751 18.0791 6.02065C17.9886 5.56565 17.7244 5.34471 17.2544 5.32014C17.0837 5.3108 16.908 5.31915 16.7403 5.35191C16.2211 5.45313 15.7748 5.36731 15.3532 5.01124C15.0571 4.75868 14.6911 4.58277 14.3405 4.4008C13.7307 4.08371 13.1024 3.80151 12.4968 3.47721C12.1226 3.27477 11.735 3.16831 11.3142 3.15308C11.1085 3.14489 10.8968 3.17355 10.6952 3.13768C10.0269 3.01812 9.48695 3.26052 8.97497 3.65836C8.40437 4.10124 7.82339 4.53265 7.22693 4.94081C6.44339 5.4777 5.59514 5.74664 4.63985 5.44298L4.43829 5.40203C4.04965 5.28034 3.69889 5.38058 3.3422 5.54616C2.76747 5.81412 2.28925 6.19656 1.88102 6.67007C1.64141 6.94932 1.39769 7.05562 1.0275 6.88692C0.698474 6.73853 0.508272 6.79995 0.351993 7.05677C-0.0221526 7.67146 -0.263898 8.68694 0.512389 9.41906C0.637873 9.53666 0.763356 9.65443 0.896086 9.76367C1.43392 10.2066 1.50671 10.7628 1.30827 11.3917C1.22198 11.6688 1.1263 11.9471 1.07493 12.2313C0.866115 13.4022 0.95784 14.4904 1.96138 15.326C2.17101 15.5 2.35002 15.7178 2.51766 15.9345C2.81787 16.3222 3.04413 16.7343 2.90745 17.261C2.80453 17.6577 2.76039 18.0688 2.65961 18.4647C2.57414 18.7991 2.57414 19.1007 2.77274 19.3994C2.84372 19.5057 2.89411 19.658 2.88176 19.7809C2.84899 20.1019 2.91782 20.3913 3.05665 20.6756C3.20584 20.9793 3.21803 21.2812 3.12153 21.6186C2.96311 22.1687 3.02388 22.7046 3.4135 23.1678C3.57999 23.3652 3.73018 23.5738 3.89666 23.7712C4.1445 24.0637 4.26686 24.3736 4.1506 24.7664C4.01902 25.2102 4.08785 25.6336 4.28942 26.06C4.71725 26.967 4.99489 27.9284 4.99901 28.9338C5 29.5036 5.05451 30.0996 4.71116 30.6285C4.42116 31.0735 4.58666 31.5223 4.88275 31.8616C5.29411 32.3341 5.48646 32.8894 5.69197 33.4541C5.78864 33.7211 5.76608 33.9483 5.6149 34.1844C5.16138 34.8951 5.13668 35.658 5.32079 36.4599C5.45039 37.0234 5.70531 37.5245 6.01375 37.999C6.23376 38.3374 6.39926 38.6873 6.46101 39.082C6.51256 39.4174 6.64611 39.6987 6.91355 39.9216C6.99786 39.9922 7.08003 40.1109 7.08926 40.2162C7.14475 40.7744 7.27847 41.3249 7.11709 41.8977C6.95257 42.4794 7.08827 42.7883 7.62199 43.1043C7.97983 43.3159 8.11141 43.6168 8.13199 43.993C8.14747 44.2834 8.12787 44.577 8.14237 44.8674C8.17118 45.3807 8.32845 45.8441 8.73981 46.1879C8.9259 46.3433 9.12648 46.5028 9.38963 46.3923C9.65789 46.2819 9.76707 46.0426 9.77217 45.7705C9.77925 45.4464 9.76394 45.119 9.74237 44.7949C9.70531 44.2295 9.7259 43.6926 10.31 43.3734L10.3861 43.3047C10.999 42.7005 11.0627 42.0662 10.6371 41.3156C10.3245 40.7633 10.1816 40.1772 10.4612 39.5485C10.5712 39.3008 10.6629 39.0278 10.6823 38.76C10.6998 38.4981 10.6761 38.2005 10.5621 37.9715C10.341 37.5298 10.0501 37.1206 9.77547 36.7054C9.34467 36.055 9.10095 35.3915 9.56468 34.6509L9.62841 34.5109C10.0684 33.7122 10.1075 32.9144 9.60997 32.124C9.4578 31.8824 9.43821 31.6505 9.60898 31.4071C9.92664 30.9592 9.8639 30.5112 9.61606 30.0529C9.469 29.783 9.34154 29.4987 9.23862 29.2102C9.04117 28.6579 9.22018 28.3223 9.88135 28.0893C10.1435 28.3734 10.4263 28.6956 10.7245 29.0035C11.1676 29.4595 11.7188 29.6354 12.3276 29.4628C12.7863 29.3329 13.0576 29.5221 13.2808 29.8575C13.5182 30.2156 13.7198 30.5959 13.9635 30.9477C14.1578 31.2268 14.3696 31.5019 14.6165 31.7352C14.8745 31.9817 15.0761 31.9489 15.3341 31.7013C15.8133 31.2373 15.9161 31.2289 16.3737 31.7024C16.6247 31.9653 16.8951 32.1523 17.2735 32.1076C17.5563 32.0727 17.7363 32.1903 17.8483 32.4368C18.0879 32.9665 18.3449 33.4892 18.5649 34.0261C18.8406 34.701 19.2961 34.9138 19.9532 34.6376C20.0477 34.5978 20.1404 34.5518 20.2369 34.5128C20.6081 34.3636 20.6461 34.3563 20.859 34.7141C21.1212 35.1549 21.3608 35.6112 21.5808 36.0754C21.8759 36.6943 22.3612 37.1002 23.0163 37.2147C23.4152 37.2853 23.625 37.4715 23.7854 37.7935C23.8687 37.9623 23.9695 38.124 24.0528 38.2927C24.4395 39.073 24.8775 39.8012 25.7812 40.0908L25.954 40.2011C26.3993 40.5079 26.8199 40.8258 26.8497 41.4395C26.8805 42.0493 27.1313 42.5993 27.3597 43.1557C27.5159 43.5352 27.7432 43.841 28.1114 44.0374C28.4106 44.1979 28.6142 44.4372 28.7334 44.7605C28.8475 45.0651 28.9854 45.3627 29.1303 45.6531C29.3328 46.0562 29.7009 46.3068 29.9591 46.2391C30.2275 46.1686 30.3693 45.875 30.356 45.3709C30.3509 45.15 30.2367 44.9046 30.3015 44.7131C30.4673 44.2234 30.3243 43.7602 30.2502 43.2939ZM14.5623 21.4829C14.4554 21.5504 14.3196 21.5781 14.1931 21.6058C13.9123 21.6711 13.6194 21.6988 13.3468 21.7889C13.0384 21.8913 12.7329 22.02 12.4492 22.1795C12.2311 22.3034 12.0203 22.468 11.8631 22.6591C11.6368 22.9362 11.3705 23.1285 11.0064 23.2738C10.8829 23.1706 10.7648 23.0487 10.626 22.9557C10.0172 22.5476 9.64916 22.5181 9.16287 22.881C9.03014 22.9803 8.87485 23.0468 8.61268 23.194C8.66209 22.8709 8.67542 22.6602 8.72993 22.4608C8.78032 22.2807 8.88308 22.1161 8.94994 21.9402C9.15562 21.4002 9.09288 21.1742 8.5972 20.8612C8.39366 20.7335 8.31643 20.586 8.3217 20.3592C8.32993 20.0166 8.32483 19.6729 8.32269 19.3293C8.32071 18.823 8.11799 18.4447 7.64306 18.2165C7.32425 18.0631 7.29658 17.9527 7.37481 17.6009C7.42404 17.3861 7.46521 17.1652 7.48991 16.9454C7.57736 16.2049 7.20519 15.6895 6.65813 15.2507C6.5646 15.176 6.46892 15.0338 6.47205 14.9244C6.4844 14.3998 6.30852 13.8752 6.51536 13.3485C6.64595 13.014 6.43302 12.7461 6.20478 12.5302C5.84693 12.1948 5.80478 11.7877 5.89321 11.348C5.96616 10.9778 6.13693 10.8663 6.51025 10.9174C6.61202 10.9328 6.71906 10.9347 6.81655 10.9634C7.66398 11.2181 8.33125 10.8981 8.92145 10.3212C9.0191 10.2251 9.12186 10.1319 9.21754 10.0338C9.54146 9.70029 9.94146 9.58269 10.394 9.62986C10.686 9.6595 10.9738 9.72895 11.265 9.74435C11.6413 9.76482 12.0177 9.75057 12.4371 9.75057C13.2597 11.2364 13.6124 11.4145 14.8793 10.9562C15.1836 11.262 15.526 11.5393 15.3028 12.0791C15.2011 12.3278 15.2936 12.5926 15.4715 12.8001C15.7162 13.0876 15.9609 13.376 16.2293 13.6408C16.4113 13.8218 16.6334 13.963 16.8422 14.1256C16.7085 14.3454 16.6448 14.4621 16.5697 14.5695C16.2644 15.0083 16.2036 15.3151 16.5358 15.6934C16.9944 16.2139 16.7538 16.7621 16.727 17.3093L16.6623 17.4443C16.3354 17.8105 16.0021 18.1735 15.6762 18.5407C15.3534 18.9038 15.2567 19.3578 15.1826 19.8149C15.1395 20.0849 15.1242 20.3602 15.0809 20.6311C15.0239 20.9818 14.8749 21.2885 14.5623 21.4829Z" fill="#11B0C8"/>
<path d="M164.337 21.1404C164.095 21.0239 163.864 21.0789 163.638 21.1762C163.055 21.4268 162.463 21.663 161.897 21.9463C161.531 22.1283 161.145 22.3309 160.869 22.6193C160.006 23.5254 158.764 23.8546 157.839 24.6555L157.746 24.7004C156.917 25.0327 156.104 25.4142 155.254 25.6812C154.512 25.9134 153.75 26.0533 153.251 26.7591C153.238 26.5751 153.255 26.4257 153.306 26.2887C153.458 25.8848 153.388 25.5125 153.167 25.1605C153.004 24.8988 152.818 24.6503 152.655 24.3874C152.577 24.2616 152.48 24.1144 152.482 23.9793C152.491 23.6428 152.341 23.3985 152.151 23.1407C152.03 22.972 151.93 22.744 151.924 22.5404C151.892 21.4799 151.897 20.4192 151.877 19.3598C151.866 18.826 151.635 18.4117 151.164 18.1275C151.027 18.0446 150.874 17.9015 150.834 17.7583C150.548 16.7222 149.921 15.7925 149.874 14.6831C149.867 14.5655 149.833 14.4447 149.79 14.3344C149.451 13.4548 149.125 12.5702 148.756 11.7041C148.604 11.3461 148.367 11.0178 148.136 10.6998C148.047 10.581 147.83 10.439 147.729 10.4747C147.581 10.5248 147.416 10.713 147.386 10.8665C147.333 11.1458 147.365 11.4422 147.376 11.7328C147.405 12.6195 147.441 13.5082 147.475 14.4102C146.914 14.535 146.778 14.9073 146.81 15.3531C146.854 15.9495 146.923 16.5425 146.991 17.1356C147.03 17.4751 147.118 17.8107 147.128 18.1501C147.147 18.8179 147.135 19.4877 147.124 20.1555C147.112 20.9042 147.234 21.6283 147.558 22.3032C147.827 22.8696 147.995 23.4547 148.023 24.0785C148.038 24.4028 148.056 24.7291 148.045 25.0534C148.036 25.3744 148.153 25.627 148.401 25.8143C148.574 25.9442 148.771 26.0412 149.058 26.2132C148.834 27.0219 148.627 27.8515 148.372 28.6675C148.129 29.4509 147.798 30.2025 148.024 31.0658C148.126 31.4555 147.969 31.6152 147.578 31.749C147.335 31.833 147.08 31.8872 146.839 31.9801C146.215 32.2223 145.58 32.4444 144.979 32.7391C144.462 32.9938 144.432 33.3199 144.798 33.7688L144.877 33.8823L144.818 33.9784C144.701 34.05 144.582 34.1185 144.46 34.1809C143.679 34.5828 143.049 35.1616 142.493 35.8243C142.115 36.2742 142.109 36.5771 142.416 37.0362C142.772 37.569 142.764 37.747 142.292 38.1712C141.719 38.6888 141.13 39.1911 140.54 39.689C140.273 39.9151 140.046 40.1575 139.923 40.495C139.882 40.6084 139.782 40.7445 139.676 40.7825C139.051 41.0083 138.66 41.4696 138.356 42.025C138.085 42.5199 137.724 42.9228 137.218 43.1838C136.944 43.3236 136.646 43.419 136.378 43.5683C135.178 44.2361 134.192 45.1769 133.212 46.1137C132.986 46.3286 132.854 46.6528 132.723 46.9463C132.586 47.2499 132.521 47.5752 132.837 47.836C133.103 48.0548 133.421 48.0559 133.799 47.835L134.009 47.6877C134.708 47.1038 135.396 46.5076 136.107 45.9378C136.37 45.7261 136.666 45.5195 136.982 45.4153C137.599 45.2108 138.237 45.0645 138.875 44.9224C139.564 44.7669 140.163 44.4867 140.663 43.965C141.327 43.2696 142.031 42.611 142.72 41.9391C142.83 41.8328 142.949 41.7254 143.079 41.6478C143.526 41.3798 143.851 40.9993 144.039 40.5319C144.37 39.7015 144.921 39.0265 145.492 38.3607C145.748 38.061 146.031 37.7819 146.27 37.4678C146.421 37.2694 146.56 37.0375 146.62 36.7979C146.809 36.0574 147.234 35.5156 147.868 35.1024C148.746 34.5276 149.608 33.9334 150.482 33.3516C150.864 33.0979 151.144 32.7656 151.351 32.3565C151.482 32.0998 151.649 31.8545 151.834 31.6325C152.366 30.9933 153.047 30.5985 153.852 30.3632C155.144 29.9858 156.062 29.1412 156.643 27.9436C156.795 27.6307 157.026 27.419 157.306 27.2493C157.495 27.1327 157.702 27.0385 157.911 26.9608C158.517 26.7337 159.034 26.3748 159.519 25.9524C159.803 25.7049 160.103 25.4606 160.433 25.2856C161.433 24.76 162.315 24.0788 163.132 23.3118C163.609 22.866 164.063 22.3946 164.506 21.9169C164.79 21.6129 164.709 21.3194 164.337 21.1404Z" fill="#11B0C8"/>
<path d="M80.3527 30.3958C80.0658 29.7127 79.8108 29.0284 79.857 28.2645C79.889 27.7377 79.8437 27.2071 79.8633 26.6793C79.8788 26.2528 79.8952 25.8191 79.9908 25.4061C80.1604 24.6738 80.3835 23.9518 80.5964 23.2297C80.6962 22.8933 80.6747 22.5742 80.4545 22.3043C80.1419 21.9187 80.108 21.4871 80.2139 21.0413C80.3456 20.4931 80.5225 19.9543 80.6686 19.409C80.7209 19.2138 80.7805 19.0082 80.7703 18.8097C80.7549 18.4713 80.6201 18.1582 80.2829 18.0203C79.9229 17.8719 79.6011 18.0099 79.3543 18.2851C79.1847 18.4744 79.0078 18.682 78.9162 18.9142C78.7537 19.3253 78.6376 19.7579 78.5306 20.1885C78.3219 21.0321 78.1325 21.882 77.9343 22.7278L77.8654 22.9211C77.4603 23.5428 77.3195 24.2424 77.2248 24.9614C77.1766 25.3345 76.978 25.5802 76.6254 25.7877C76.1154 26.0896 75.6403 26.473 75.2156 26.887C74.8125 27.279 74.4897 27.7523 74.134 28.1911C74.1442 27.8915 74.1279 27.5875 74.1803 27.2973C74.3632 26.2889 74.5752 25.2845 74.7715 24.2763C74.8691 23.7731 74.9752 23.2678 75.0389 22.7596C75.0707 22.4948 75.0667 22.2044 74.9907 21.9518C74.896 21.6398 74.7048 21.3504 74.3191 21.327C73.9521 21.3024 73.7012 21.5017 73.5242 21.8036C73.4646 21.9069 73.4121 22.0163 73.3668 22.1267C72.9144 23.2426 72.465 24.3593 71.9838 25.5509C71.8234 24.8227 71.5242 24.2938 70.7026 24.4812C70.4148 24.0055 70.3438 23.5115 70.2462 23.0279C70.1681 22.6443 69.984 22.3252 69.7156 22.0461C69.5079 21.8303 69.2448 21.8303 68.9958 21.9213C68.7418 22.0155 68.5711 22.1965 68.5711 22.5033C68.5711 22.758 68.531 23.0125 68.5124 23.2682C68.4815 23.6925 68.4301 24.118 68.4281 24.5424C68.4271 24.9863 68.4538 25.4333 68.5052 25.875C68.5823 26.5357 68.1762 26.9694 67.8285 27.4952C67.6569 27.1473 67.4852 26.8672 67.3762 26.5634C67.3021 26.36 67.335 26.1218 67.2877 25.9059C67.2126 25.5725 67.0995 25.2482 67.0234 24.9149C66.9371 24.5334 66.8672 24.1479 66.8013 23.7643C66.7695 23.5782 66.7787 23.3871 66.7448 23.2028C66.5803 22.3131 66.3242 21.4398 66.3211 20.5224C66.3201 20.236 66.2789 19.9405 66.205 19.6634C66.1205 19.3515 65.8872 19.1868 65.6485 19.241C65.3432 19.3116 65.0368 19.4138 64.8723 19.7051C64.7058 20.0018 64.5505 20.3095 64.4332 20.6286C64.3097 20.9652 64.2368 21.3199 64.1444 21.6676C64.0807 21.911 63.9438 22.0614 63.6724 22.0481C63.1758 22.0257 62.9259 22.3354 62.7491 22.7332C62.6247 23.0156 62.5363 23.3142 62.3922 23.5862C62.0128 24.3092 61.9171 25.0446 62.2308 25.8147C62.3377 26.0774 62.3624 26.3454 62.2628 26.6155C61.9203 27.545 61.7557 28.5411 61.2006 29.3931C61.0906 29.5618 60.994 29.7662 60.9775 29.9628C60.9487 30.2951 60.8706 30.7074 61.0238 30.9568C61.3004 31.3997 61.353 31.8394 61.3394 32.3221C61.3353 32.4233 61.3498 32.5296 61.3735 32.6279C61.4537 32.9429 61.7026 33.1678 61.9749 33.1822C62.2751 33.1964 62.4602 33.0431 62.5724 32.6564C62.6555 32.3742 62.7553 32.1135 62.9765 31.8987C63.2337 31.647 63.2882 31.3157 63.1616 30.9915C63.0598 30.7257 63.1369 30.5283 63.2839 30.3257C63.3951 30.1734 63.5277 30.0314 63.6151 29.8678C63.6994 29.7073 63.7888 29.524 63.7879 29.3512C63.7828 28.7745 64.0942 28.3634 64.4294 27.9164C64.5467 28.0054 64.6167 28.0904 64.7061 28.122C65.1163 28.262 65.2622 28.6006 65.3765 28.9656C65.5379 29.4893 65.6624 30.0263 65.8639 30.5334C66.1395 31.232 66.4706 31.9081 66.7832 32.5932L66.9106 32.7535C67.0814 32.9335 67.2818 32.9825 67.5214 32.9018C67.8371 32.7984 68.0263 32.5847 68.0285 32.2615C68.0304 31.5785 68.0069 30.8942 67.9883 30.2103C67.9779 29.8277 67.9524 29.4441 67.9318 29.0023C68.2947 29.1948 68.4377 29.4136 68.4069 29.7428C68.3924 29.8953 68.4192 30.0537 68.3955 30.204C68.302 30.795 68.6885 31.1193 69.0773 31.4395C69.2263 31.5612 69.4114 31.5633 69.5534 31.4323C69.9216 31.0908 70.2824 30.7409 70.2116 30.1652C70.192 30.016 70.1879 29.8534 70.2249 29.7091C70.3679 29.1558 70.3155 28.624 70.0984 28.1023C70.0263 27.9305 69.9947 27.7659 70.1026 27.5563C70.3534 27.7834 70.6145 27.9438 70.7679 28.176C71.1288 28.716 71.4475 29.2847 71.7622 29.8532C72.011 30.3021 72.2218 30.7706 72.4634 31.2236C72.5898 31.4598 72.7771 31.6468 73.0751 31.6193C73.3775 31.5907 73.58 31.4292 73.6644 31.1244C73.7167 30.9332 73.794 30.7491 73.87 30.5334L73.9369 30.607L73.9575 30.7583C73.9995 31.4578 74.381 31.8884 75.0257 32.1248C75.2509 32.2065 75.4709 32.3048 75.6787 32.4204C76.5218 32.8896 77.477 32.7147 78.0787 31.9713C78.1734 31.8548 78.2628 31.7341 78.3964 31.5613C78.453 31.8211 78.4981 32.0185 78.5363 32.2158C78.635 32.7037 78.8746 33.1137 79.2324 33.4523C79.5698 33.7713 80.0293 33.7949 80.4161 33.5342C80.7563 33.304 80.9363 33.0074 80.9003 32.5811C80.8349 31.8204 80.6457 31.0963 80.3527 30.3958ZM63.9212 25.8162C64.2205 25.0236 64.5022 24.2812 64.7828 23.5376L64.9166 23.5713C64.9166 23.962 64.8601 24.3629 64.932 24.7403C64.9999 25.0878 65.2066 25.4102 65.3824 25.816L63.9212 25.8162ZM77.3727 29.6922C77.199 29.8354 77.0684 30.0307 76.9039 30.1883C76.6221 30.4602 76.2694 30.412 76.2139 30.0532C76.1615 29.7209 76.2519 29.3618 76.3074 29.0192C76.3619 28.6836 76.5017 28.4433 76.8741 28.2951C77.2062 28.1601 77.4684 27.8544 77.8519 27.5556C77.9384 28.3822 78.0739 29.1122 77.3727 29.6922Z" fill="#11B0C8"/>
<path d="M56.014 14.5727C55.6448 14.6341 55.2583 14.6647 54.9157 14.8018C54.5045 14.9654 54.0963 15.1833 53.7467 15.4532C52.7008 16.2612 51.6788 17.1017 50.6557 17.9393C50.4018 18.148 50.1806 18.4046 49.8135 18.3699C49.4969 18.3403 49.2408 18.4641 49.0065 18.6511C48.63 18.9497 48.2661 19.2668 47.8855 19.5613C47.7106 19.6964 47.5216 19.8232 47.319 19.9111C46.9788 20.0605 46.6229 20.176 46.2692 20.3069C46.0317 19.8907 46.0121 19.456 46.2445 19.0051C46.3392 18.8231 46.4194 18.6258 46.4523 18.4263C46.55 17.8392 46.6825 17.2542 46.337 16.6795C46.2333 16.5077 46.2682 16.251 46.2496 16.0312C46.2249 15.7428 46.2898 15.4134 46.1735 15.1721C45.9781 14.7702 46.05 14.4194 46.1786 14.0441C46.2279 13.8979 46.2816 13.7526 46.3216 13.6044C46.4996 12.9509 46.5571 12.2882 46.4212 11.6204C46.2722 10.8799 45.6316 10.6488 45.0228 11.1081C44.9128 11.19 44.8037 11.2717 44.7039 11.3464C44.0932 11.1929 43.9759 11.2093 43.7077 11.606C43.5873 11.7841 43.4988 12.007 43.4732 12.2187C43.4392 12.5224 43.4855 12.8344 43.4792 13.1432C43.462 14.1005 43.5451 15.0771 43.3836 16.0097C43.1739 17.2185 42.8983 18.4274 42.4459 19.5841C42.3102 19.9306 42.269 20.3142 42.1847 20.6803C42.1055 21.029 42.0479 21.3839 41.943 21.7246C41.7795 22.2625 41.5697 22.7871 41.4073 23.3271C41.3508 23.5174 41.3477 23.7372 41.3724 23.9378C41.4135 24.269 41.612 24.5064 41.9326 24.6126C42.2216 24.7088 42.4324 24.5596 42.6083 24.3499C42.8159 24.0993 43.0175 23.8437 43.2303 23.5952C43.3218 23.4887 43.4308 23.3977 43.5324 23.2996L43.6548 23.368C43.5828 23.6584 43.5058 23.95 43.4389 24.2436C43.3885 24.4584 43.3207 24.6762 43.3175 24.8931C43.3072 25.6907 43.194 26.4507 42.7654 27.1531C42.5865 27.4478 42.4846 27.8486 42.7891 28.1062C43.1212 28.3886 43.0822 28.6963 43.0214 29.0339C42.8312 30.0964 42.6379 31.1569 42.4363 32.2164C42.4014 32.4005 42.3448 32.5846 42.2646 32.7533C41.9869 33.3333 41.8924 33.956 41.7526 34.5746C41.6036 35.2395 41.914 35.6609 42.3099 36.0792C42.5495 36.3339 42.7901 36.3604 43.0317 36.1118C43.2662 35.8715 43.5087 35.5893 43.6075 35.2814C43.8111 34.6433 44.0301 34.0174 44.3179 33.4131C44.3899 33.2596 44.4299 33.088 44.466 32.9222C44.6068 32.2689 44.7395 31.6142 44.8762 30.9605C45.0046 30.3419 45.1344 29.7241 45.2813 29.0257C45.8303 29.2814 46.0956 28.9235 46.3815 28.584C46.4452 28.5064 46.5666 28.4767 46.69 28.41C46.8052 28.7147 46.8637 28.9939 47.0098 29.217C47.1558 29.4388 47.3923 29.6034 47.5845 29.7968L47.7027 29.9644C48.1366 30.7632 48.6168 31.5508 48.6806 32.4855C48.7206 33.0663 49.0117 33.4817 49.4425 33.8253C49.9525 34.2314 50.2415 34.7794 50.369 35.3869C50.5459 36.2194 50.9674 36.9158 51.4692 37.5683C51.6923 37.8586 51.7982 38.1521 51.8373 38.5019C51.8692 38.7882 51.8949 39.0973 52.0225 39.3466C52.2363 39.7651 52.3998 40.1791 52.4347 40.6536C52.4594 41.0003 52.7349 41.2069 53.062 41.2119C53.4259 41.216 53.6039 41.0655 53.6923 40.6719C53.7077 40.6066 53.7098 40.537 53.7212 40.4348C54.2384 40.443 54.4943 40.3069 54.5602 39.9121C54.6506 39.3721 54.7092 38.8239 54.4965 38.2892C54.3947 38.0345 54.3114 37.7728 54.2251 37.512C53.7192 35.9819 53.2329 34.4512 53.1486 32.8189C53.1268 32.4333 52.9172 32.0283 52.7023 31.6897C52.3372 31.1171 52.0616 30.5373 51.9527 29.8551C51.8047 28.9325 51.4252 28.6084 50.5007 28.4551C50.1533 28.3968 49.8386 28.2903 49.6196 27.9814C49.1229 27.2811 48.6119 26.5907 48.1101 25.8962C48.0391 25.798 47.9846 25.6907 47.9231 25.5873C47.7554 25.3112 47.5991 25.0278 47.4201 24.7599C47.0582 24.2148 47.2587 23.5736 47.8799 23.3363C48.2664 23.19 48.6552 23.0531 49.0407 22.9058C50.1388 22.4875 50.9007 21.7778 51.1856 20.5946C51.3521 19.9085 51.709 19.3264 52.4288 19.0565C52.5737 19.0023 52.7023 18.9083 52.8431 18.8449C53.5619 18.5145 54.079 17.9827 54.4153 17.276C54.5459 17.003 54.7586 16.8261 54.987 16.6338C55.4723 16.2258 55.9198 15.7728 56.37 15.3248C56.5057 15.1908 56.5931 15.0169 56.4841 14.8125C56.3832 14.6217 56.2196 14.5378 56.014 14.5727Z" fill="#11B0C8"/>
<path d="M133.042 36.8304C133.213 36.5952 133.269 36.3191 133.185 36.0472C133.051 35.6073 132.899 35.1698 132.72 34.7453C132.424 34.057 132.256 33.3739 132.377 32.6018C132.567 31.3868 132.297 30.2321 131.552 29.2442C131.233 28.8219 131.117 28.422 131.187 27.9198C131.232 27.6007 131.229 27.2725 131.039 26.9729C130.607 26.2908 130.193 25.5994 129.446 25.1873C129.185 25.0442 129.195 24.7363 129.452 24.5656C129.609 24.4622 129.796 24.408 129.962 24.316C130.261 24.1514 130.576 24.002 130.845 23.7955C131.18 23.5377 131.536 23.3567 131.953 23.2779C132.114 23.2471 132.27 23.1623 132.418 23.0827C132.922 22.8127 133.252 22.38 133.54 21.9024C133.708 21.6243 133.768 21.3328 133.733 21.0167C133.711 20.8123 133.708 20.6015 133.651 20.4062C133.571 20.1322 133.513 19.812 133.331 19.6156C132.988 19.2424 132.767 18.8036 132.495 18.3915C132.331 18.1389 132.27 17.9435 132.448 17.652C132.71 17.2245 132.608 16.8431 132.241 16.4994C131.836 16.123 131.372 15.9532 130.819 16.078C130.358 16.1812 129.93 16.0729 129.522 15.8664C128.881 15.5411 128.47 15.5729 127.999 16.1006C127.521 16.6375 127.099 17.2257 126.655 17.7922C126.585 17.881 126.521 17.9751 126.44 18.0877C126.171 17.8421 126.193 17.5467 126.158 17.2645C126.08 16.6365 126.016 16.0054 125.89 15.3878C125.815 15.0208 125.566 14.8611 125.277 14.8589C124.961 14.855 124.669 15.0799 124.573 15.4338C124.535 15.5748 124.551 15.7324 124.546 15.8828C124.529 16.3256 124.54 16.7705 124.493 17.2112C124.406 18.0611 124.219 18.9059 124.197 19.7568C124.175 20.6906 124.037 21.5935 123.837 22.5007C123.77 22.8085 123.806 23.1429 123.826 23.464C123.852 23.8772 124.099 24.1461 124.456 24.3414C124.9 24.5828 125.007 24.8825 124.816 25.3619C124.71 25.633 124.564 25.8877 124.458 26.1597C124.277 26.6262 124.247 27.1066 124.499 27.5526C124.771 28.0364 124.779 28.5006 124.626 29.0304C124.506 29.4476 124.456 29.917 124.513 30.3453C124.586 30.8978 124.591 31.4356 124.524 31.9807C124.496 32.2015 124.47 32.4297 124.498 32.6463C124.522 32.8191 124.594 33.0165 124.711 33.1423C125.15 33.6127 125.854 33.5011 126.103 32.8907C126.248 32.5359 126.306 32.1268 126.312 31.7422C126.323 31.1459 126.444 30.6008 126.69 30.0547C126.869 29.6579 126.933 29.2039 127.017 28.7702C127.066 28.5084 127.052 28.2364 127.063 28.0431C127.185 28.1332 127.337 28.2375 127.484 28.3499C128.181 28.8806 128.684 29.5688 129.113 30.3206C129.274 30.602 129.461 30.8832 129.691 31.1071C130.185 31.5858 130.373 32.1491 130.34 32.8221C130.324 33.1433 130.327 33.4921 130.438 33.7837C130.652 34.3491 130.796 34.9238 130.911 35.5149C131.018 36.0559 131.231 36.5674 131.651 36.9579C132.092 37.3685 132.694 37.3121 133.042 36.8304ZM129.039 21.9481C128.906 22.1956 128.689 22.3972 128.489 22.6406C128.368 22.5558 128.259 22.5179 128.215 22.4423C128.015 22.1008 127.778 21.801 127.466 21.5463C127.352 21.4533 127.35 21.2273 127.286 21.0288C127.822 20.9051 128.118 20.6228 128.299 20.175C128.606 19.4193 128.778 19.3415 129.808 19.4386C129.051 19.9468 129.057 20.5533 129.219 21.2334C129.271 21.4492 129.153 21.7345 129.039 21.9481Z" fill="#11B0C8"/>
<path d="M133.195 24.5123C132.8 24.6154 132.634 24.8886 132.712 25.2793C132.803 25.7333 133.079 25.9901 133.541 25.9492C133.944 25.9135 134.272 26.0566 134.628 26.1906C135.164 26.393 135.573 26.8921 136.242 26.8115C136.2 26.9433 136.19 27.0323 136.148 27.1017C135.878 27.5588 135.779 28.0487 135.762 28.5753C135.754 28.8148 135.636 29.0695 135.509 29.2832C135.34 29.5716 135.285 29.8599 135.373 30.1688C135.441 30.4151 135.521 30.6657 135.646 30.8867C135.795 31.1494 135.803 31.3643 135.675 31.6484C135.4 32.2622 135.326 32.9004 135.667 33.5313C135.721 33.6335 135.764 33.7603 135.759 33.8728C135.721 34.6071 135.781 35.371 135.595 36.0666C135.335 37.0341 135.312 37.9945 135.335 38.9691C135.345 39.415 135.437 39.8609 135.717 40.2289C135.985 40.5807 136.32 40.5511 136.543 40.1716C136.594 40.0846 136.622 39.9826 136.653 39.8841C136.804 39.3954 136.953 38.9055 137.098 38.4127C137.175 38.1508 137.274 37.8902 137.307 37.6221C137.445 36.4685 137.576 35.3128 137.682 34.1562C137.741 33.514 137.843 32.9004 138.231 32.3624C138.319 32.2409 138.397 32.0874 138.408 31.9431C138.445 31.4501 138.514 30.9501 138.327 30.4672C138.24 30.2464 138.251 30.0356 138.369 29.8271C138.723 29.2003 138.757 28.5293 138.67 27.8338C138.63 27.5168 138.635 27.1926 138.62 26.8726L138.745 26.7815C138.924 26.8644 139.137 26.9093 139.276 27.0362C139.867 27.5772 140.587 27.6326 141.308 27.522C141.707 27.4598 142.006 27.521 142.311 27.7502C142.706 28.0476 143.16 28.2012 143.656 28.2205C144.354 28.245 144.621 28.0068 144.653 27.335C144.794 27.2337 144.943 27.1448 145.072 27.0333C145.427 26.7253 145.46 26.345 145.128 26.0063C144.966 25.8396 144.753 25.6964 144.534 25.6147C144.248 25.5073 143.937 25.4488 143.632 25.409C143.413 25.3805 143.248 25.3068 143.103 25.1381C142.82 24.8058 142.443 24.6544 142.008 24.6472C141.682 24.6421 141.355 24.6461 141.022 24.6461C140.583 24.0448 140.448 24.0019 139.631 24.1103C139.28 24.1552 138.921 24.2433 138.511 24.0653C138.595 23.8014 138.649 23.5325 138.762 23.293C139.101 22.5732 139.33 21.8193 139.472 21.0442C139.627 20.2006 139.791 19.3651 140.192 18.5938L140.223 18.4957C140.313 17.9036 140.33 17.334 139.819 16.887C139.412 16.5321 139.403 16.439 139.673 15.9747C139.95 15.5002 140.251 15.039 140.502 14.5521C140.648 14.2689 140.774 13.9528 140.807 13.6409C140.871 13.0141 140.439 12.6551 139.806 12.7553C139.239 12.8452 138.9 13.2074 138.674 13.7054C138.513 14.0623 138.338 14.4132 138.166 14.7679C137.726 15.6761 137.263 16.573 137.133 17.5988C137.087 17.966 136.945 18.3229 136.821 18.6767C136.628 19.23 136.471 19.7904 136.481 20.3806C136.487 20.7835 136.399 21.1579 136.219 21.5199C135.976 22.0107 135.912 22.5222 136.021 23.0693C136.143 23.683 135.952 23.9008 135.337 23.9038C135.002 23.9048 134.68 23.9354 134.413 24.1595C134.177 24.3568 133.904 24.4304 133.603 24.4479C133.466 24.4559 133.327 24.4775 133.195 24.5123Z" fill="#11B0C8"/>
<path d="M39.6463 28.8289C39.0304 29.2696 38.6283 29.2739 38.0041 28.8402C37.82 28.7124 37.6463 28.5703 37.4602 28.4474C37.1343 28.2307 36.7929 28.159 36.4586 28.4291C36.2561 28.5917 36.0504 28.5876 35.8344 28.4772C35.4714 28.29 35.132 28.3618 34.8083 28.5662C34.5606 28.7206 34.3302 28.9047 34.0782 29.05C33.7308 29.2483 33.4088 29.0654 33.4037 28.6685C33.4016 28.5354 33.4284 28.3922 33.4828 28.2707C33.5938 28.0212 33.7255 27.7808 33.8602 27.5435C34.0298 27.2469 34.2447 26.9699 34.3806 26.6589C34.6922 25.9431 34.578 25.5893 33.9498 25.175C33.8788 25.128 33.8069 25.0829 33.6926 25.0092C33.782 24.3465 34.2098 23.9569 34.6622 23.5795C35.2689 23.0742 35.8816 22.5752 36.4657 22.0443C36.7928 21.7467 37.0097 21.3746 36.7814 20.9103C37.1073 20.7057 37.4353 20.6279 37.7881 20.631C38.0812 20.6332 38.3743 20.6341 38.6673 20.6228C39.4077 20.5942 40.0534 20.3601 40.5079 19.7444C40.7002 19.4826 40.7895 19.184 40.6273 18.876C40.4792 18.5929 40.2241 18.464 39.9014 18.4782C39.3347 18.5026 38.7672 18.511 38.2027 18.5611C37.9467 18.5845 37.74 18.5866 37.558 18.3688C37.3586 18.1305 37.081 18.0517 36.7672 18.0712C35.9888 18.1213 35.2855 18.3811 34.6902 18.8782C34.5062 19.0316 34.3241 19.2821 34.2943 19.5081C34.2213 20.0787 33.9066 20.3447 33.3772 20.4397L33.1313 20.5154C32.1011 20.8089 31.7607 21.2251 31.6198 22.2682C31.5621 22.7039 31.5035 23.1733 31.3021 23.5497C31.0141 24.0815 30.8631 24.6184 30.8302 25.2084C30.8096 25.5982 30.6574 25.9346 30.3901 26.2248C30.2041 26.4263 29.9933 26.6217 29.8699 26.8602C29.7074 27.172 29.5676 27.5147 29.5109 27.8602C29.439 28.2908 29.7217 28.5719 30.1578 28.6047C30.236 28.6107 30.3141 28.6056 30.4415 28.6056C30.3294 28.7971 30.2174 28.9319 30.1639 29.0885C30.06 29.3921 29.9386 29.7032 29.9119 30.017C29.8698 30.5079 30.1041 30.737 30.607 30.7758C30.8474 30.7953 31.0892 30.7842 31.3308 30.7892C31.8327 30.8015 31.99 30.9661 31.8923 31.4549C31.8039 31.9059 31.8943 32.2944 32.2698 32.5501C32.6162 32.7886 32.6872 33.0995 32.6954 33.4749C32.7006 33.7132 32.7253 33.9566 32.7919 34.1847C32.8423 34.3564 32.9472 34.5283 33.0706 34.6612C33.2824 34.8923 33.5784 34.9177 33.8057 34.7082C34.002 34.5252 34.1769 34.3021 34.3055 34.0669C34.5018 33.7069 34.6325 33.3101 34.8247 32.9481C34.9769 32.6639 35.1547 32.3855 35.3634 32.1413C35.5453 31.9274 35.7726 31.8293 36.0965 31.951C36.294 32.0255 36.5747 31.9765 36.7855 31.8968C37.0375 31.8018 37.2771 31.6411 37.4785 31.4611C37.8291 31.1452 38.2024 31.0583 38.6661 31.135C39.7304 31.3109 40.7093 30.6114 40.8799 29.554C40.9158 29.3361 40.8695 29.0619 40.7575 28.8749C40.5204 28.4753 40.1347 28.4792 39.6463 28.8289Z" fill="#11B0C8"/>
<path d="M122.018 26.0155C121.64 25.5625 121.548 25.1289 121.802 24.601C121.963 24.2617 122.13 23.9169 122.229 23.5569C122.477 22.6733 122.459 21.8019 122.012 20.9664C121.919 20.7915 121.875 20.5797 121.854 20.3804C121.807 19.956 121.661 19.6031 121.344 19.2934C120.785 18.7452 120.182 18.288 119.43 18.0252C118.396 17.6652 117.436 17.7849 116.636 18.518C116.122 18.9895 115.725 19.5857 115.267 20.1185C115.125 20.2831 114.971 20.452 114.79 20.5665C113.989 21.0727 113.365 21.7077 113.208 22.6815C113.116 23.2511 112.915 23.7449 112.528 24.2001C112.03 24.785 111.99 25.6643 112.418 26.2097C112.982 26.9306 113.084 27.7262 112.969 28.5894C112.924 28.928 112.902 29.2694 112.863 29.6819C112.907 29.9885 112.921 30.3701 113.024 30.7258C113.144 31.1389 113.476 31.3558 113.843 31.2627C114.272 31.1522 114.57 31.3495 114.894 31.5512C115.152 31.7127 115.419 31.864 115.699 31.9847C115.863 32.0564 115.979 32.1319 116.066 32.3008C116.342 32.8397 116.682 33.0197 117.293 32.9022C117.761 32.8112 118.21 32.6323 118.703 32.7242C118.812 32.7447 118.952 32.7027 119.051 32.6446C119.552 32.3488 120.126 32.1187 120.525 31.7189C121.237 31.0061 121.887 30.2188 122.477 29.4006C122.829 28.9117 123.09 28.3349 122.925 27.664C122.769 27.027 122.419 26.4993 122.018 26.0155ZM118.253 27.7561C118.508 28.2807 118.492 28.289 118.44 28.8053C118.122 28.8361 117.788 28.8678 117.491 28.8944C117.243 28.5119 117.024 28.1693 116.801 27.8298C116.612 27.5454 116.378 27.3224 116.007 27.3399C115.736 27.3522 115.642 27.1926 115.598 26.9718C115.551 26.7375 115.512 26.5003 115.464 26.2661C115.327 25.6083 115.482 25.0326 115.988 24.5868C116.483 24.1509 116.681 23.6509 116.569 22.9882C116.481 22.4646 116.853 22.1526 117.3 21.9347C117.223 22.2641 117.139 22.5924 117.074 22.9237C116.94 23.5967 117.222 24.0895 117.768 24.4599C117.896 24.5467 118.037 24.6133 118.165 24.7013C118.493 24.9262 118.56 25.1165 118.434 25.4938C118.376 25.6719 118.291 25.8425 118.219 26.0175C117.98 26.6017 117.969 27.1753 118.253 27.7561Z" fill="#11B0C8"/>
<path d="M27.3545 23.1756C27.3349 22.5312 27.4461 21.9157 27.6753 21.3153C27.8451 20.8714 27.9334 20.402 27.7175 19.9634C27.4777 19.4764 27.4224 18.9898 27.5181 18.4703V18.2647C27.4912 17.871 27.3042 17.6787 26.9063 17.6419C26.5516 17.6112 26.2255 17.6908 25.9253 17.8903C25.8204 17.9609 25.6818 18.0274 25.5624 18.0202C24.9363 17.9824 24.7028 18.1552 24.782 18.7554C24.8663 19.4058 24.7881 20.0155 24.5598 20.6187C24.5237 20.7138 24.5145 20.8182 24.493 20.9194C24.4147 21.2886 24.4661 21.6035 24.8559 21.7786C25.1037 21.89 25.1612 22.1088 25.1192 22.337C25.079 22.5519 24.9896 22.7594 24.9073 22.9639C24.7675 23.3138 24.5947 23.6512 24.4745 24.006C24.2781 24.59 24.3388 25.1259 24.8673 25.5308C25.0739 25.6894 25.1808 25.8969 25.1694 26.1525C25.1469 26.664 25.1457 27.1785 25.0749 27.6836C25.0277 28.0292 24.9628 28.3658 25.1171 28.6901C25.2579 28.9846 25.2806 29.2843 25.2086 29.5911C25.1212 29.9675 25.2004 30.3049 25.4102 30.6169C25.6004 30.8983 25.6692 31.208 25.66 31.5434C25.6539 31.8513 25.659 32.1602 25.659 32.469H25.6447C25.6447 32.8288 25.6333 33.1898 25.6478 33.55C25.6653 33.9856 25.7629 34.4028 26.0796 34.7291C26.4302 35.0891 26.8488 35.047 27.1172 34.6279C27.1881 34.5134 27.2541 34.3794 27.2683 34.2484C27.3145 33.8425 27.3845 33.4293 27.3547 33.0254C27.2857 32.0476 27.3845 31.111 27.8594 30.2333C27.9406 30.0862 27.9653 29.9092 28.0261 29.7485C28.2841 29.0797 28.204 28.4385 27.8698 27.8178L27.8216 27.7265C27.6529 27.3932 27.659 27.0742 27.8647 26.751C28.0302 26.4913 28.1547 26.2038 28.3284 25.9491C28.7224 25.3775 28.6667 24.637 27.8996 24.1902C27.4738 23.9426 27.3669 23.6091 27.3545 23.1756Z" fill="#11B0C8"/>
<path d="M25.3701 15.7876C25.7732 16.1148 26.2431 16.2336 26.7252 16.0596C27.2229 15.8806 27.4625 15.4654 27.5015 14.9429C27.5539 14.2414 27.6547 13.5542 27.8243 12.8679C28.0063 12.1296 27.5539 11.6723 26.7251 11.7869C26.7694 11.5395 26.8145 11.3432 26.8372 11.1437C26.9093 10.5526 26.4711 10.0025 25.9509 10.0618C25.5541 10.1068 25.1848 10.2521 24.9031 10.563C24.5884 10.9107 24.4784 11.4536 24.7366 11.8444C24.968 12.1902 24.9001 12.4671 24.7242 12.7914C24.5443 13.1218 24.3736 13.4644 24.2636 13.8203C24.1164 14.3042 24.1782 14.7765 24.5834 15.1387C24.8375 15.3642 25.1068 15.5737 25.3701 15.7876Z" fill="#11B0C8"/>
<path d="M142.844 43.0155V43.1139H142.559V43.8523H142.444V43.1139H142.159V43.0155" fill="#11B0C8"/>
<path d="M142.922 43.0155H143.084L143.328 43.7224L143.57 43.0155H143.731V43.8523H143.624V43.3626L143.625 43.2725V43.1465L143.384 43.8523H143.271L143.024 43.1465V43.1713L143.03 43.2653V43.8523H142.922" fill="#11B0C8"/>
</svg>
