<svg width="21" height="27" viewBox="0 0 21 27" fill="none" xmlns="http://www.w3.org/2000/svg">
<path d="M19.9999 0H14.9999C14.7347 0 14.4804 0.105357 14.2928 0.292893C14.1053 0.48043 13.9999 0.734784 13.9999 1C13.9999 1.26522 14.1053 1.51957 14.2928 1.70711C14.4804 1.89464 14.7347 2 14.9999 2H17.5862L14.4424 5.14375C13.5193 4.28349 12.4058 3.65378 11.1929 3.30605C9.97995 2.95833 8.70195 2.90245 7.46328 3.14298C6.22461 3.38352 5.0604 3.91364 4.06574 4.69005C3.07109 5.46646 2.27419 6.46714 1.74014 7.61036C1.2061 8.75358 0.950042 10.0069 0.992897 11.268C1.03575 12.5291 1.3763 13.7621 1.98673 14.8665C2.59715 15.9708 3.46014 16.9151 4.50522 17.6222C5.55029 18.3293 6.7478 18.7791 7.99994 18.935V21H4.99994C4.73472 21 4.48037 21.1054 4.29283 21.2929C4.1053 21.4804 3.99994 21.7348 3.99994 22C3.99994 22.2652 4.1053 22.5196 4.29283 22.7071C4.48037 22.8946 4.73472 23 4.99994 23H7.99994V26C7.99994 26.2652 8.1053 26.5196 8.29283 26.7071C8.48037 26.8946 8.73472 27 8.99994 27C9.26515 27 9.51951 26.8946 9.70704 26.7071C9.89458 26.5196 9.99994 26.2652 9.99994 26V23H12.9999C13.2652 23 13.5195 22.8946 13.707 22.7071C13.8946 22.5196 13.9999 22.2652 13.9999 22C13.9999 21.7348 13.8946 21.4804 13.707 21.2929C13.5195 21.1054 13.2652 21 12.9999 21H9.99994V18.935C11.3403 18.7676 12.6164 18.263 13.7089 17.4685C14.8014 16.674 15.6746 15.6155 16.2469 14.3919C16.8193 13.1684 17.072 11.8196 16.9816 10.4718C16.8912 9.12405 16.4606 7.82118 15.7299 6.685L18.9999 3.41375V6C18.9999 6.26522 19.1053 6.51957 19.2928 6.70711C19.4804 6.89464 19.7347 7 19.9999 7C20.2652 7 20.5195 6.89464 20.707 6.70711C20.8946 6.51957 20.9999 6.26522 20.9999 6V1C20.9999 0.734784 20.8946 0.48043 20.707 0.292893C20.5195 0.105357 20.2652 0 19.9999 0ZM8.99994 17C7.81325 17 6.65321 16.6481 5.66652 15.9888C4.67982 15.3295 3.91079 14.3925 3.45666 13.2961C3.00254 12.1997 2.88372 10.9933 3.11523 9.82946C3.34674 8.66557 3.91818 7.59647 4.7573 6.75736C5.59641 5.91824 6.66551 5.3468 7.8294 5.11529C8.99328 4.88378 10.1997 5.0026 11.296 5.45672C12.3924 5.91085 13.3295 6.67988 13.9888 7.66658C14.648 8.65327 14.9999 9.81331 14.9999 11C14.9983 12.5908 14.3656 14.116 13.2408 15.2408C12.1159 16.3657 10.5907 16.9983 8.99994 17Z" fill="#313234"/>
</svg>
