<svg width="24" height="28" viewBox="0 0 24 28" fill="none" xmlns="http://www.w3.org/2000/svg">
<path d="M12 0C8.81852 0.0036392 5.76839 1.26909 3.51874 3.51874C1.26909 5.76839 0.0036392 8.81852 0 12C0 15 1.57 18.8825 4.20125 22.375C6.84875 25.8937 9.76375 28 12 28C14.2362 28 17.1512 25.8988 19.7987 22.375C22.43 18.875 24 15 24 12C23.9964 8.81852 22.7309 5.76839 20.4813 3.51874C18.2316 1.26909 15.1815 0.0036392 12 0ZM18.2013 21.1775C16.03 24.0612 13.5387 26 12 26C10.4613 26 7.97 24.0612 5.79875 21.1775C3.45625 18.0625 2 14.5463 2 12C2 9.34784 3.05357 6.8043 4.92893 4.92893C6.8043 3.05357 9.34784 2 12 2C14.6522 2 17.1957 3.05357 19.0711 4.92893C20.9464 6.8043 22 9.34784 22 12C22 14.5463 20.5438 18.0625 18.2013 21.1775ZM11 15C11 13.6739 10.4732 12.4021 9.53553 11.4645C8.59785 10.5268 7.32608 10 6 10C5.46957 10 4.96086 10.2107 4.58579 10.5858C4.21071 10.9609 4 11.4696 4 12C4 13.3261 4.52678 14.5979 5.46447 15.5355C6.40215 16.4732 7.67392 17 9 17C9.53043 17 10.0391 16.7893 10.4142 16.4142C10.7893 16.0391 11 15.5304 11 15ZM6 12C6.79565 12 7.55871 12.3161 8.12132 12.8787C8.68393 13.4413 9 14.2044 9 15C8.20435 15 7.44129 14.6839 6.87868 14.1213C6.31607 13.5587 6 12.7956 6 12ZM18 10C16.6739 10 15.4021 10.5268 14.4645 11.4645C13.5268 12.4021 13 13.6739 13 15C13 15.5304 13.2107 16.0391 13.5858 16.4142C13.9609 16.7893 14.4696 17 15 17C15.6566 17 16.3068 16.8707 16.9134 16.6194C17.52 16.3681 18.0712 15.9998 18.5355 15.5355C18.9998 15.0712 19.3681 14.52 19.6194 13.9134C19.8707 13.3068 20 12.6566 20 12C20 11.4696 19.7893 10.9609 19.4142 10.5858C19.0391 10.2107 18.5304 10 18 10ZM15 15C15 14.2044 15.3161 13.4413 15.8787 12.8787C16.4413 12.3161 17.2044 12 18 12C18 12.7956 17.6839 13.5587 17.1213 14.1213C16.5587 14.6839 15.7956 15 15 15ZM15 21C15 21.2652 14.8946 21.5196 14.7071 21.7071C14.5196 21.8946 14.2652 22 14 22H10C9.73478 22 9.48043 21.8946 9.29289 21.7071C9.10536 21.5196 9 21.2652 9 21C9 20.7348 9.10536 20.4804 9.29289 20.2929C9.48043 20.1054 9.73478 20 10 20H14C14.2652 20 14.5196 20.1054 14.7071 20.2929C14.8946 20.4804 15 20.7348 15 21Z" fill="#313234"/>
</svg>
